PathFileType	4	(X/Y/Z)	C:\Users\WrightLab\Desktop\Jo\P1.2Trial5.trc
DataRate	CameraRate	NumFrames	NumMarkers	Units	OrigDataRate	OrigDataStartFrame	OrigNumFrames
100.00	100.00	       39	19	mm	100.00	110	       872
Frame#	Time	Headset_Front			Headset_Back			Headset_Left			Headset_Right			Left_Shoulder			Right_Shoulder			Sternum			C7			Left Elbow			Right Elbow			Left Wrist			Right Wrist			Left ASIS			Right ASIS			S2			Left Knee			Right Knee			Left Ankle			Right Ankle			
		X1	Y1	Z1	X2	Y2	Z2	X3	Y3	Z3	X4	Y4	Z4	X5	Y5	Z5	X6	Y6	Z6	X7	Y7	Z7	X8	Y8	Z8	X9	Y9	Z9	X10	Y10	Z10	X11	Y11	Z11	X12	Y12	Z12	X13	Y13	Z13	X14	Y14	Z14	X15	Y15	Z15	X16	Y16	Z16	X17	Y17	Z17	X18	Y18	Z18	X19	Y19	Z19	

110	1.090																																		-361.56937	843.41510	1513.24548													-500.24872	496.45837	1720.72632							
111	1.100																																		-361.50797	841.21216	1507.66992													-502.05042	495.03720	1716.97644							
112	1.110																																		-361.00894	839.63062	1501.53284													-504.03598	492.26523	1714.55103							
113	1.120																																		-360.33231	838.07764	1496.33252													-506.12332	492.57623	1708.71887							
114	1.130																																		-359.96344	835.63153	1489.99121													-508.49164	490.34830	1702.45630							
115	1.140																																		-360.13580	833.64972	1483.67175													-510.97137	490.39481	1697.08508							
116	1.150																																		-359.72092	830.99615	1478.16443													-513.43591	488.90506	1689.71411							
117	1.160																												-343.48862	1013.48926	1663.97742				-359.00833	829.43848	1472.35620													-516.07336	487.75003	1685.75476							
118	1.170																												-342.56122	1011.78857	1657.34717				-358.55829	826.45831	1466.39514													-518.63202	485.92590	1678.49744							
119	1.180																												-342.25494	1008.34442	1650.10803				-357.77145	824.13678	1460.06030													-521.47052	484.52557	1673.28760							
120	1.190																												-340.92349	1006.07910	1644.39514				-356.98071	821.05701	1453.87061													-524.40759	482.52338	1665.11108							
121	1.200																												-340.61731	1003.81415	1638.14929				-356.29742	818.24878	1448.75610													-527.00543	480.25073	1656.54993							
122	1.210																												-339.14450	1001.87543	1632.31970				-355.46228	814.94183	1442.78894										-772.29938	468.85773	1844.75696	-529.51111	475.26550	1653.01074							
123	1.220																												-338.20566	998.75446	1626.19788				-354.29581	812.52917	1436.85559										-772.70648	468.61801	1840.26855	-532.03125	470.79254	1649.72656							
124	1.230																												-337.33191	995.73120	1618.53796				-353.28210	808.99701	1430.94312										-773.02209	467.90085	1836.31348	-534.12543	468.89099	1640.56836							
125	1.240																												-336.06430	993.07672	1612.24597				-351.93436	805.88477	1425.49353										-773.59973	467.17102	1830.86035	-537.19421	468.49976	1631.67688							
126	1.250																												-335.77866	990.76874	1606.42590				-350.58859	802.32465	1420.52551										-773.88550	466.99121	1825.51343	-540.41595	466.13589	1629.00391							
127	1.260																												-334.77524	988.40137	1599.92993				-348.99701	799.66302	1415.41113										-774.53796	466.39655	1819.53943	-542.94061	467.00043	1622.12402							
128	1.270																												-333.19669	988.11786	1594.42065				-347.57889	797.22070	1410.52588										-775.94226	466.28854	1813.14856	-544.91882	468.61014	1615.70410							
129	1.280																												-333.07773	986.81940	1588.43506				-346.05862	795.57867	1406.07104										-779.18909	467.07352	1805.96948	-547.24420	470.44016	1610.80786							
130	1.290																												-332.72803	986.30792	1583.61646				-344.43146	793.21539	1401.12122										-782.84198	467.96655	1798.00146	-548.35052	472.89670	1603.66846							
131	1.300																												-332.20099	986.18311	1579.97791				-343.04892	792.15924	1398.19116										-787.13287	468.65350	1790.28760	-549.98761	475.27133	1598.16919							
132	1.310																												-331.50565	985.55652	1575.04736				-341.44205	790.53015	1394.98962										-790.99792	469.38745	1781.09644	-549.65997	476.23276	1593.35046							
133	1.320																												-330.03775	986.65417	1570.34839				-340.14923	789.33649	1392.54199										-795.01489	470.17905	1771.70532	-549.27264	477.48749	1587.13611							
134	1.330																												-330.91321	986.58722	1565.78162				-338.57382	788.31152	1389.33630										-799.21173	470.93018	1762.03674	-549.11688	479.64154	1582.04504							
135	1.340																												-329.11249	987.44110	1561.55750				-337.19836	787.66687	1386.66626										-803.25336	472.37558	1753.11743	-547.79285	478.77069	1578.76514							
136	1.350																												-328.88910	986.39520	1557.97607				-335.55283	786.85504	1385.17627										-807.11554	474.52496	1743.56519	-546.22644	477.66885	1577.44739							
137	1.360																												-327.90781	986.71588	1554.71704				-335.16519	785.96558	1381.29785										-810.35541	476.93317	1734.67834	-544.69873	478.02771	1573.90991							
138	1.370																												-325.92157	987.55695	1551.27026				-334.26306	785.76416	1378.59229										-812.90826	478.40930	1729.70178	-541.70435	476.01001	1573.08508							
139	1.380																												-324.49585	987.34674	1548.21350				-333.02914	785.53912	1375.42139										-814.98547	481.24841	1720.88501	-539.75439	474.86081	1573.85413							
140	1.390																												-323.34430	987.88068	1545.14905				-332.03769	784.48529	1372.36157										-815.26520	482.65833	1716.48950	-536.90070	473.57834	1572.46704							
141	1.400																												-322.36920	987.42303	1542.44861				-331.72531	784.30115	1370.35608										-814.64148	484.20941	1709.46509	-533.90839	470.89084	1573.68347							
142	1.410																												-321.19199	987.23871	1539.73828				-330.39435	784.20123	1368.00171										-812.90881	484.86008	1704.52197	-530.93665	469.70398	1574.01074							
143	1.420																												-320.26276	987.49127	1536.64746				-330.36871	783.66113	1364.61316										-810.99896	485.68527	1699.03723	-528.71863	469.44586	1573.50488							
144	1.430																												-319.00122	987.88055	1534.63770				-329.32651	783.40039	1363.11621										-808.53040	485.99567	1695.14307	-525.83545	467.91913	1574.84448							
145	1.440																												-318.56744	987.73114	1532.42554				-328.54733	783.33667	1361.18018										-806.08636	486.75067	1690.58228	-522.92047	466.86581	1574.52209							
146	1.450													-776.14648	1292.29028	1678.25562													-317.56525	988.28467	1530.32532				-327.70926	783.03528	1359.22534										-803.93878	487.04526	1687.55371	-519.18591	465.97037	1576.24695							
147	1.460													-775.50012	1292.26196	1675.83679													-316.19342	988.65619	1528.57080				-326.64371	783.16516	1357.58167										-801.14673	487.81061	1683.81860	-517.74170	466.54089	1576.07043							
148	1.470							-682.09937	1405.51318	1457.67090				-775.07452	1292.29419	1672.52344													-315.11176	988.75665	1526.51318				-325.75583	782.44104	1356.38159										-798.65222	488.21609	1680.58398	-514.45612	464.94037	1578.95386							
